<?xml version="1.0" encoding="utf-8"?>
<!-- Generator: Adobe Illustrator 27.7.0, SVG Export Plug-In . SVG Version: 6.00 Build 0)  -->
<svg version="1.1" id="Layer_1" xmlns="http://www.w3.org/2000/svg" xmlns:xlink="http://www.w3.org/1999/xlink" x="0px" y="0px"
	 viewBox="0 0 150 146" enable-background="new 0 0 150 146" xml:space="preserve">
<linearGradient id="SVGID_1_" gradientUnits="userSpaceOnUse" x1="40.769" y1="114.3806" x2="68.6918" y2="74.5357" gradientTransform="matrix(1 0 0 -1 0 145.89)">
	<stop  offset="0" style="stop-color:#181661"/>
	<stop  offset="9.000000e-02" style="stop-color:#311D70"/>
	<stop  offset="0.33" style="stop-color:#6D2D93"/>
	<stop  offset="0.55" style="stop-color:#9C3AB0"/>
	<stop  offset="0.74" style="stop-color:#BF43C4"/>
	<stop  offset="0.9" style="stop-color:#D349D0"/>
	<stop  offset="1" style="stop-color:#DB4BD5"/>
</linearGradient>
<path fill="url(#SVGID_1_)" d="M117.4,28.9C112.4,33.9,63.1,93,2,99c-1.3,0.1-1.9-0.4-2-0.7c-0.7-3.9,27.8-10.2,26.9-16
	c-1.7-11.5-0.2-23.3,4.5-34s12.3-19.9,21.9-26.4c9.6-6.6,20.9-10.3,32.6-10.7c11.6-0.4,23.2,2.5,33.3,8.3
	C122.4,21.3,122.6,23.7,117.4,28.9z"/>
<linearGradient id="SVGID_00000088844486859247010000000003472832819200960406_" gradientUnits="userSpaceOnUse" x1="85.6985" y1="88.3159" x2="128.5135" y2="27.2204" gradientTransform="matrix(1 0 0 -1 0 145.89)">
	<stop  offset="0" style="stop-color:#181661"/>
	<stop  offset="9.000000e-02" style="stop-color:#311D70"/>
	<stop  offset="0.33" style="stop-color:#6D2D93"/>
	<stop  offset="0.55" style="stop-color:#9C3AB0"/>
	<stop  offset="0.74" style="stop-color:#BF43C4"/>
	<stop  offset="0.9" style="stop-color:#D349D0"/>
	<stop  offset="1" style="stop-color:#DB4BD5"/>
</linearGradient>
<path fill="url(#SVGID_00000088844486859247010000000003472832819200960406_)" d="M45.3,117.8c1.2,1.1,2.3,2.1,3.5,3.1
	c11.7,9.6,26.5,14.6,41.6,14s29.5-6.6,40.4-17.1c10.9-10.4,17.7-24.5,19-39.6s-3-30.1-12-42.2c-2.7-3.6,5.2-15.8,3.2-17.7
	c-0.6-0.6-1.6-0.1-2.7,1.5c-0.6,1-38.1,61.9-87.2,88.8C46.2,111.4,40.3,113,45.3,117.8L45.3,117.8z"/>
</svg>
